<svg id="Layer_1" data-name="Layer 1" xmlns="http://www.w3.org/2000/svg" viewBox="0 0 133.6 106.19"><path d="M296.71,265.66c5.29-11.61,13.89-30.4,19.06-45.17,2.11-.32,15.22-.22,16.8.52,0,0-.13,13.2-.13,34.31,0,19.52.66,31.13.66,31.13a88.67,88.67,0,0,1-13.5.53c.8-13.4,1.19-32.83,1.19-45.6,0-2.63-.26-3.16-1.05-3.16-1.06,0-1.46.74-2.52,2.85-5.29,10.55-15.61,34.3-19.58,44.85a26.57,26.57,0,0,1-9.53.53c-4-12.66-12.18-34.83-17.47-47.49-.93-2.22-1.46-2.85-2.52-2.85-.79,0-1.05.42-1.19,3.06-.26,5.28-.39,15.41-.39,23.53,0,16.89.66,24.28.66,24.28a75.38,75.38,0,0,1-10.06.21s.79-12.35.79-31.87c0-21.11-.39-34.31-.39-34.31,2-.52,17.07-.84,19.19-.52,4.1,12.66,12.44,35.67,16.41,45.17.39.95.92,1.79,1.85,1.79S296.18,266.82,296.71,265.66Z" transform="translate(-253.9 -181.09)"/><path d="M353.61,237.37c0,5.28.27,9.29.93,10.35.79,1.26,3,1.47,14.95,1.47,9.27,0,15.09-.21,15.09-.21a25.8,25.8,0,0,1,.26,6.55l-15.35.21c-9.26.1-11.51.31-12.57,2-.66,1.06-1.06,3.59-1.06,8.34,0,6.86.4,11.19,1.06,12.24.79,1.27,2,1.69,11.25,1.69s17.07-.52,17.07-.52a25.2,25.2,0,0,1-.53,7.49c-31.1,0-42.88.21-42.88.21S343,270.83,343,256.58c0-22.69-.79-36.09-.79-36.09s19.06,0,41.95-.53a24.61,24.61,0,0,1-.13,7.91s-6-.31-12.57-.31c-12.57,0-16.15.42-16.94,1.69S353.61,232.62,353.61,237.37Z" transform="translate(-253.9 -181.09)"/><path d="M269,193.2c0-3-.09-5.29-.53-6.18s-1.69-1.24-4.21-1.24c-3.52,0-4.39.5-4.88,1.49s-.67,4.45-.67,11.62c0,5.19.09,8.4.58,9.39s1.45,1.24,3.52,1.24c3.49,0,4.11-.25,4.6-1.24s.48-3.46.24-7.66a17.17,17.17,0,0,1,5.07,0c0,11.12-1.88,12.6-8.89,12.6-8,0-10-2.22-10-14.09-.05-14.83,2.85-17.55,10.59-17.55,6.52,0,8.7,1,9,11.37A14.31,14.31,0,0,1,269,193.2Z" transform="translate(-253.9 -181.09)"/><path d="M285.76,181.09c7.35,0,10.39,3.21,10.44,17.3,0,11.62-3.09,14.83-10,14.83-8,0-10.05-3.21-10.05-16.06S279.23,181.09,285.76,181.09Zm-4.3,26.69c.48,1,1.69,1.39,4.11,1.39,3.62,0,4.78-.25,5.26-1.24s.63-4.84.63-11c0-5.44-.14-8.41-.63-9.39s-2.12-1.09-4.3-1.09c-3.62,0-4.59.34-5.07,1.33s-.63,5-.63,11.13C280.83,204.08,281,206.8,281.46,207.78Z" transform="translate(-253.9 -181.09)"/><path d="M299.54,213.07s0-4.54,0-11.22c0-13.84-.39-19.38-.39-19.38a20.34,20.34,0,0,1,5.51-.39c2.85,6.32,7.15,14.43,10.54,20.86.34.64.53.94,1,.94s.44-.1.49-.79.09-3.71.09-6.18c0-3.46-.43-10.73-.43-10.73a29.51,29.51,0,0,1,4.25,0s-.29,5.78-.29,15.42c0,5.44.24,10.88.24,10.88a17.87,17.87,0,0,1-5.8.15c-2.9-6.33-6.62-13.25-10-20.17-.49-1-.63-1.14-1.07-1.14s-.53.15-.53.79c0,12.71.39,20.87.39,20.87A27.42,27.42,0,0,1,299.54,213.07Z" transform="translate(-253.9 -181.09)"/><path d="M326.17,197.16c0-7.67-.09-10.19-.29-11-.33-1.38-1.2-1.78-7.25-1.88l-2.9-.05a4.49,4.49,0,0,1,0-2.77c1,0,8.46-.15,12.33-.15s8.8.1,9.76.15a6.28,6.28,0,0,1,0,2.72l-1.5.1c-4.06.25-5.27.55-5.66,1.73a29.79,29.79,0,0,0-.34,6.18c0,13.84.39,20.67.39,20.67a20.25,20.25,0,0,1-4.79.05S326.17,205.31,326.17,197.16Z" transform="translate(-253.9 -181.09)"/><path d="M355.66,205.91c1.26,4,1.45,4.59,8.46,4.59a69.84,69.84,0,0,0,8.27-.49,5.71,5.71,0,0,1,0,2.72,77.25,77.25,0,0,1-10.39.74c-8.71,0-9.91-.74-10.93-4.7l-1.26-5c-.38-1.48-.82-1.58-3.57-1.58H346c-3.87,0-4.74.3-5.08,1.68-.73,2.92-1.4,8.9-1.4,8.9a6.4,6.4,0,0,1-1.07.05,23,23,0,0,1-4.3-.3c2.76-9.64,5.32-19.77,7.93-30.9,1.06-.1,2.46-.2,3.77-.2a25.49,25.49,0,0,1,3.24.2c1.5,6.33,3.77,15.33,5.85,22ZM346.82,190c-.63-2.47-.87-3.46-1.45-3.46s-1,1.38-1.65,3.85l-1.3,5.29A13,13,0,0,0,342,198c0,1.13.63,1.18,3.29,1.18h.24c2.18,0,3.14,0,3.14-1.23a10.92,10.92,0,0,0-.38-2.08Z" transform="translate(-253.9 -181.09)"/><path d="M369.15,195.43c.05-2,0-3.07-.43-4s-1.45-1.09-3.63-1.09-3.14.35-3.63,1.34-.58,3-.58,5.68c0,3.22.1,4.95.58,5.94s1.5,1.23,3.15,1.23c1.93,0,2.75-.39,3-1s.39-1.73,0-4.45a35.7,35.7,0,0,1,4.64-.15c.25,5.59-2.12,8.8-7.92,8.8-5.56,0-7.5-2.71-7.5-10.13,0-9.15,2.18-11.12,8-11.12,5.56,0,8.12,2.47,7.3,8.9A12.94,12.94,0,0,1,369.15,195.43Z" transform="translate(-253.9 -181.09)"/><path d="M379.84,192.21c0,13.84.43,20.67.43,20.67a14.57,14.57,0,0,1-4.79.05s.25-7.62.25-15.77c0-7.67-.1-10.09-.39-11-.53-1.63-1.79-1.68-14.65-1.83l-3.67,0a6.5,6.5,0,0,1,0-2.77c2.56-.1,7.35-.2,20.4-.2,3.77,0,7.35,0,9.91.15a4.65,4.65,0,0,1,0,2.82l-2.42.1c-3.82.15-4.44.59-4.74,1.78A34.58,34.58,0,0,0,379.84,192.21Z" transform="translate(-253.9 -181.09)"/></svg>