<svg id="Layer_1" data-name="Layer 1" xmlns="http://www.w3.org/2000/svg" viewBox="0 0 118.89 104.8"><path d="M284,267.55c4.85-10.84,12.74-28.37,17.47-42.17,1.94-.29,13.95-.19,15.41.5,0,0-.12,12.31-.12,32,0,18.23.6,29.06.6,29.06a79.94,79.94,0,0,1-12.37.5c.73-12.51,1.09-30.64,1.09-42.56,0-2.46-.24-3-1-3-1,0-1.33.69-2.3,2.66-4.86,9.86-14.32,32-18,41.87a24,24,0,0,1-8.74.49c-3.64-11.82-11.16-32.5-16-44.33-.85-2.06-1.33-2.66-2.31-2.66-.72,0-1,.4-1.09,2.86-.24,4.93-.36,14.38-.36,22,0,15.76.61,22.66.61,22.66a68.44,68.44,0,0,1-9.23.19s.73-11.52.73-29.75c0-19.7-.36-32-.36-32,1.82-.5,15.65-.79,17.59-.5,3.76,11.83,11.4,33.3,15,42.17.37.88.85,1.67,1.7,1.67S283.49,268.63,284,267.55Z" transform="translate(-246.33 -182.92)"/><path d="M336.15,241.15c0,4.92.24,8.67.85,9.65.73,1.18,2.79,1.38,13.71,1.38,8.49,0,13.83-.2,13.83-.2a25.22,25.22,0,0,1,.24,6.11l-14.07.2c-8.49.1-10.56.29-11.53,1.87-.6,1-1,3.35-1,7.78,0,6.4.37,10.44,1,11.43.73,1.18,1.82,1.57,10.32,1.57s15.65-.49,15.65-.49a24.46,24.46,0,0,1-.49,7c-28.51,0-39.31.19-39.31.19s1.09-15.27,1.09-28.56c0-21.18-.72-33.7-.72-33.7s17.47,0,38.45-.49a22.94,22.94,0,0,1-.12,7.39s-5.46-.3-11.52-.3c-11.53,0-14.8.4-15.53,1.58S336.15,236.71,336.15,241.15Z" transform="translate(-246.33 -182.92)"/><path d="M251,218a24.75,24.75,0,0,1-4.68-.33c3-10.68,5.79-21.91,8.63-34.23,1.15-.11,2.68-.22,4.1-.22a27.35,27.35,0,0,1,3.52.22c2.68,12.05,5.84,23.11,9.57,34.5a22.23,22.23,0,0,1-2.89.11,16.43,16.43,0,0,1-3.73-.27s-1.21-6.52-2.26-9.8c-.53-1.59-.79-1.76-3.79-1.76h-.26c-4.21,0-4.63.33-5,1.87-.79,3.23-1.53,9.85-1.53,9.85A13.86,13.86,0,0,1,251,218Zm9.52-25.25c-.68-2.74-1-3.83-1.84-3.83s-1.26,1.53-1.95,4.27l-1.42,5.86a14.55,14.55,0,0,0-.47,2.52c0,1.26,1,1.31,3.84,1.31H259c2.63,0,3.53,0,3.53-1.37a9.94,9.94,0,0,0-.37-2.3Z" transform="translate(-246.33 -182.92)"/><path d="M265.11,183.31c9.57.16,16.83-.11,18.77-.11h.53c8.42,0,11,1.31,11.1,8.76,0,5-1.58,6.74-5,7.67,2.74,1,5.26,2.19,5.26,8.21,0,8.22-2.58,10.13-11.78,10.13h-.53c-6,0-9.41-.27-9.41-.27s.21-1.92.21-14v-.54c0-11.23,0-14.46-.47-15.45-.42-.82-2-1.26-8.74-1.37A12.06,12.06,0,0,1,265.11,183.31Zm24.61,9.47c0-5.75-.21-6-5.78-6-3.16,0-3.84.16-4.37.71-.74.77-.79,2-.79,6.68,0,2,.05,2.79.58,3.34s2.26.49,3.53.49C289.2,198,289.72,197.71,289.72,192.78Zm.27,15.06c0-6,0-6.63-5.26-6.63-3.16,0-4.05.06-4.58.61s-.53,1.64-.53,8.76c0,1.92.11,2.9.48,3.29.63.65,2,.65,2.79.65C289.46,214.52,290,214.41,290,207.84Z" transform="translate(-246.33 -182.92)"/><path d="M309.13,182.92c8,0,11.31,3.56,11.36,19.17,0,12.87-3.36,16.43-10.88,16.43-8.68,0-10.94-3.56-10.94-17.8S302,182.92,309.13,182.92Zm-4.68,29.58c.53,1.09,1.84,1.53,4.47,1.53,3.95,0,5.21-.27,5.73-1.37s.69-5.37.69-12.21c0-6-.16-9.31-.69-10.41s-2.31-1.2-4.68-1.2c-3.94,0-5,.38-5.52,1.48s-.68,5.47-.68,12.32C303.77,208.39,303.93,211.4,304.45,212.5Z" transform="translate(-246.33 -182.92)"/><path d="M334.69,218.52c-8.25,0-10.41-2.46-10.41-9.86,0-20-.32-25-.32-25a39.47,39.47,0,0,1,4.48-.17s-.16,14-.16,18.35c0,5.75,0,8.54.63,9.85s2,1.81,4.84,1.81c3.94,0,4.78-.44,5.31-1.53s.58-3,.58-8.22c0-7.39-.11-15.17-.11-15.17a25.75,25.75,0,0,1,5.11.22s.15,8.93.15,19.88C344.79,215.51,343.53,218.52,334.69,218.52Z" transform="translate(-246.33 -182.92)"/><path d="M356,195.25c0,15.33.47,22.89.47,22.89a15.23,15.23,0,0,1-5.21.05s.27-8.43.27-17.47c0-8.49-.11-11.17-.42-12.16-.58-1.8-1.95-1.86-15.94-2l-4-.06a7.37,7.37,0,0,1-.05-3.06c2.79-.11,8-.22,22.19-.22,4.11,0,8,.05,10.79.16a5.32,5.32,0,0,1,0,3.12l-2.63.11c-4.16.17-4.84.66-5.16,2A39,39,0,0,0,356,195.25Z" transform="translate(-246.33 -182.92)"/></svg>