<svg id="Layer_1" data-name="Layer 1" xmlns="http://www.w3.org/2000/svg" viewBox="0 0 139 102"><defs><style>.cls-1{fill:none;stroke:#fff;stroke-linejoin:round;stroke-width:4px;}</style></defs><rect class="cls-1" x="2" y="2" width="135" height="98" rx="9.44"/><path d="M833,542l-1.92-5.22-1.9,5.23-3.73-10h11.2Z" transform="translate(-803.46 -452.78)"/><path d="M840.47,537.45l2.44,3.15v1.24h-5.28V532h5.08v1.24l-2.29,3h2.29v1.24Z" transform="translate(-803.46 -452.78)"/><path d="M849.94,539.15a2.64,2.64,0,0,1-2.59,2.69h-3.11V532h2.58a2.57,2.57,0,0,1,2.52,2.62,2.73,2.73,0,0,0,.6,4.52Z" transform="translate(-803.46 -452.78)"/><path d="M856.74,532a4.92,4.92,0,0,1,0,9.83h-2.42V532Z" transform="translate(-803.46 -452.78)"/><path d="M865.35,537.45l2.44,3.15v1.24h-5.28V532h5.08v1.24l-2.3,3h2.3v1.24Z" transform="translate(-803.46 -452.78)"/><path d="M872.74,542.05l-4-10h8.06Z" transform="translate(-803.46 -452.78)"/><path d="M880.55,537.45,883,540.6v1.24h-5.29V532h5.09v1.24l-2.3,3h2.3v1.24Z" transform="translate(-803.46 -452.78)"/><path d="M889.6,540.6v1.24h-5.27V532h3.18v8.59Z" transform="translate(-803.46 -452.78)"/><path d="M894.06,542a5,5,0,1,1,4.73-5A4.9,4.9,0,0,1,894.06,542Z" transform="translate(-803.46 -452.78)"/><path d="M903.12,532a2.74,2.74,0,0,1,0,5.48h-2v4.35h-1.3V532Z" transform="translate(-803.46 -452.78)"/><path d="M909.66,537.45l2.44,3.15v1.24h-5.29V532h5.09v1.24l-2.3,3h2.3v1.24Z" transform="translate(-803.46 -452.78)"/><path d="M920.29,541.84h-6.86V532h3.5a2.74,2.74,0,0,1,0,5.48Z" transform="translate(-803.46 -452.78)"/><path d="M826.56,503.36c0-6.28,2.76-6.84,8.46-6.84,6.08,0,8.42.19,8.47,4.49a10.88,10.88,0,0,1-.23,2,15.44,15.44,0,0,1-3.36.15c0-3.07,0-3.26-4-3.26-4.78,0-4.83.12-4.83,4.3,0,2.43.14,2.8,4.05,2.8,7.82,0,8.74.19,8.74,6.54,0,6.66-3,6.92-8.7,6.92-5.47,0-8.42-.94-8.42-5.79,0-.75.1-1.69.1-1.69a20.51,20.51,0,0,1,4.23-.07,12.32,12.32,0,0,0-.18,1.76c0,2.2.78,2.24,6.53,2.24,2.53,0,2.85-.38,2.85-3,0-3.74-.18-3.93-5.29-3.93C828.4,510,826.56,509.56,826.56,503.36Z" transform="translate(-803.46 -452.78)"/><path d="M851.82,520.33a21.93,21.93,0,0,1-4.88,0s.14-3.93.14-9.53v-.38c0-11.21-.32-13.41-.32-13.41a46.49,46.49,0,0,1,6.9-.3h.23c7.36,0,11.27,1.49,11.31,7.1,0,6-3.45,6.73-11.13,6.73-1.29,0-1.61.07-1.93.33-.51.41-.51,1.12-.51,3.92A54.61,54.61,0,0,0,851.82,520.33Zm7.86-12.67c.69-.56.69-1.8.69-4.41,0-1.87-.18-2.62-.59-3.07s-1.71-.86-4.7-.86c-2.3,0-3.45,0-3.91.38s-.6,2.58-.6,5.75c0,1.39,0,2,.46,2.39s1.52.45,3.13.45C856.69,508.29,858.9,508.29,859.68,507.66Z" transform="translate(-803.46 -452.78)"/><path d="M871.42,502.69a11.45,11.45,0,0,0,.32,3.66c.28.45,1.06.52,5.2.52,3.22,0,5.24-.07,5.24-.07a9.64,9.64,0,0,1,.1,2.32l-5.34.07c-3.22,0-4,.11-4.37.71a6.85,6.85,0,0,0-.37,3,13.87,13.87,0,0,0,.37,4.34c.27.45.69.59,3.91.59s5.93-.18,5.93-.18a9.17,9.17,0,0,1-.18,2.65c-10.81,0-14.91.08-14.91.08s.42-5.8.42-10.84c0-8-.28-12.78-.28-12.78s6.63,0,14.58-.19a8.73,8.73,0,0,1,0,2.8s-2.07-.11-4.37-.11c-4.37,0-5.61.15-5.89.6S871.42,501,871.42,502.69Z" transform="translate(-803.46 -452.78)"/><path d="M888.44,506.31a7,7,0,0,0,.23,2.54c.28.45.92.64,3.77.64,3.13,0,4.93-.15,4.93-.15a8.62,8.62,0,0,1,0,2.39s-2.76-.07-4.37-.07c-2.67,0-3.22.11-3.45.48a7.32,7.32,0,0,0-.23,2.58,7.74,7.74,0,0,0,.23,2.65c.28.45.69.56,3.22.56a40.33,40.33,0,0,0,5.06-.29,10.08,10.08,0,0,1,0,2.61c-8.6,0-13.21.19-13.21.19a64.48,64.48,0,0,0,.28-7.21c0-8-.46-12.56-.46-12.56s5.29.22,13.25.22a7.24,7.24,0,0,1,0,2.73s-3.08-.18-5.38-.18-3.4,0-3.68.48A5.86,5.86,0,0,0,888.44,506.31Z" transform="translate(-803.46 -452.78)"/><path d="M900.87,510.54c0-6.92,0-10.09-.47-10.84s-1-1.09-16.28-1.09a6.14,6.14,0,0,1,0-2.05s11.13,0,23.18,0h.23c5.43,0,8.88.56,10.31,2.8,1.1,1.84,1.38,5.42,1.38,9.35,0,8.22-3.22,11.51-9.62,11.66-3.22.07-5,0-6.67,0-1.29,0-2.44.08-2.44.08a85,85,0,0,0,.33-9.53Zm7.91,6.91c4.51,0,6.12-2.8,6.12-8.41,0-6.91,0-9.9-6.9-9.9a5,5,0,0,0-2.67.48c-.69.56-.69,2.51-.69,6.62,0,7.66,0,9.71.92,10.46A5.52,5.52,0,0,0,908.78,517.45Z" transform="translate(-803.46 -452.78)"/><path d="M828.82,485.7a3.23,3.23,0,0,0,.26,1.44c.18.32.47.61,2.09.61,1.27,0,1.81-.22,2.17-.9s.37-2.52.37-4.68c0-7.21-.58-15.14-.58-15.14a18.37,18.37,0,0,1,4-.18s-.07,2.71-.07,14.95c0,6.49-.94,8.47-6,8.47-4.88,0-5.64-1.69-5.82-4.5A15.32,15.32,0,0,1,828.82,485.7Z" transform="translate(-803.46 -452.78)"/><path d="M846.15,470.64c6.5,0,7.26,2.52,7.26,10.44,0,7.39-1.95,9-6.94,9-5.68,0-7-2.16-7-9.91S841.12,470.64,846.15,470.64Zm-2.86,15.24c.36.72,1.08,1,3.07,1,2.35,0,2.9-.18,3.26-.9s.54-2.34.54-6.13a16,16,0,0,0-.54-5.22c-.36-.72-1-1-2.75-1-2.32,0-3.22.25-3.58,1s-.47,2.88-.47,6.3C842.82,483.61,842.93,485.16,843.29,485.88Z" transform="translate(-803.46 -452.78)"/><path d="M866.79,479.1a3.07,3.07,0,0,1,2.54,3.07c0,1.08-.11,1.8-.11,2.7,0,2.34.29,2.95,8.42,2.95a42.2,42.2,0,0,0,8.68-.68,7.06,7.06,0,0,1,.07,2.77s-4.55.43-9.25.43c-9.77,0-11.4-.61-11.43-4.57,0-1.08.11-2.16.11-2.88,0-2-1.27-2.71-3.37-2.71s-2.42.26-2.56.54a6.74,6.74,0,0,0-.26,2.71,49.58,49.58,0,0,0,.29,6.19,17.74,17.74,0,0,1-4,.11s.11-2.34.11-8.83v-.36c0-8.46,0-9.72-.32-10.26-.47-.94-1.2-1.26-16.42-1.44a3.47,3.47,0,0,1,0-2c8.68.11,17.36.11,22.24.11h.18c5.61,0,8.5,2.06,8.54,6.38C870.23,477.12,868.42,478.49,866.79,479.1Zm-.54-1.8c.62-.61.62-1.69.62-3.6a6.58,6.58,0,0,0-.55-3.32c-.36-.54-1.15-.82-3.87-.82-2,0-2.46.1-2.82.46-.5.51-.54,2.24-.54,5.3,0,1.26.07,1.87.54,2.34a2.66,2.66,0,0,0,1.92.47C864,478.13,865.6,478,866.25,477.3Z" transform="translate(-803.46 -452.78)"/><path d="M877.61,467c7.23,0,8.17,2.81,8.17,9.8,0,6.13-2.35,9.26-7.6,9.26-2.17,0-4.34,0-5.78.11,0,0,.18-1.8.18-7.93a101.69,101.69,0,0,0-.4-11.06S874.53,467,877.61,467Zm.76,16.39c2.78,0,4-1.73,4-6.23,0-5.94-.37-7.82-4.6-7.82-1,0-1.88.08-2.09.72s-.26,2.24-.26,8.18c0,2.34.18,3.42.54,4.15A2.47,2.47,0,0,0,878.37,483.35Z" transform="translate(-803.46 -452.78)"/><path d="M901.69,484.76c.9,2.81,1.09,3.17,4,3.17,1.08,0,1.84-.07,1.84-.07a4,4,0,0,1,0,2,24.86,24.86,0,0,1-4.34.32c-3.61,0-4.23-.68-4.92-3.31l-.94-3.68c-.28-1.08-.61-1.15-2.67-1.15h-.18c-2.9,0-3.55.22-3.8,1.23-.54,2.12-1,6.48-1,6.48a5.5,5.5,0,0,1-.79,0c-.84,0-2.28,0-3.22-.15,2.06-7,4-14.55,5.93-22.66.79,0,1.84-.07,2.82-.07s1.88,0,2.42.07c1.12,4.61,2.82,11.24,4.38,16.11Zm-6.62-11.6c-.47-1.8-.65-2.52-1.08-2.52s-.76,1-1.23,2.81l-1,3.85a9.11,9.11,0,0,0-.32,1.66c0,.83.47.86,2.46.86h.18c1.62,0,2.35,0,2.35-.9a7.85,7.85,0,0,0-.29-1.51Z" transform="translate(-803.46 -452.78)"/><path d="M903.79,486.2s.07-1.69.07-10.52c0-5.76-.29-8.36-.29-8.36a16.08,16.08,0,0,1,4.2-.25c2,4.65,4.84,10.48,7.37,15.17.26.47.4.68.76.68s.4,0,.44-.54.1-2.09.1-3.89c0-5-.5-11.46-.5-11.46a15.42,15.42,0,0,1,3.43,0s-.14,6.49-.14,15.32c0,5.76,0,7.2,0,7.2a16,16,0,0,1-4.56,0c-2.28-5.08-4.41-9.55-6.94-14.59-.37-.72-.48-.83-.8-.83s-.4.11-.4.58c0,7.09.18,11.35.18,11.35A11.46,11.46,0,0,1,903.79,486.2Z" transform="translate(-803.46 -452.78)"/></svg>