<svg id="Layer_1" data-name="Layer 1" xmlns="http://www.w3.org/2000/svg" viewBox="0 0 204.78 41.36"><path d="M237.72,246.86c2.54-7,6.67-18.3,9.14-27.19,1-.19,7.31-.13,8.07.32,0,0-.06,7.94-.06,20.64,0,11.75.32,18.74.32,18.74a33.69,33.69,0,0,1-6.48.32c.38-8.07.57-19.76.57-27.44,0-1.59-.13-1.91-.51-1.91s-.7.45-1.21,1.72c-2.54,6.35-7.49,20.64-9.4,27a10.19,10.19,0,0,1-4.57.32c-1.91-7.62-5.85-21-8.39-28.58-.44-1.34-.7-1.72-1.2-1.72s-.51.26-.58,1.84c-.12,3.18-.19,9.28-.19,14.17,0,10.16.32,14.61.32,14.61a29.16,29.16,0,0,1-4.83.13s.39-7.44.39-19.19c0-12.7-.19-20.64-.19-20.64a55.37,55.37,0,0,1,9.21-.32c2,7.62,6,21.47,7.87,27.19.19.57.45,1.08.89,1.08S237.46,247.56,237.72,246.86Z" transform="translate(-218.72 -219.22)"/><path d="M255.12,220.18a42.17,42.17,0,0,1,7-.51c2.54,5.08,5.27,10.1,8.13,14.8,1.46,2.42,2,2.22,3.49-.06a126.39,126.39,0,0,0,7.88-14.74c.95-.13,4.89-.13,5.9.32-3.74,6-7.43,12.32-10.92,18.61-1.59,2.86-2.22,4.57-2.22,7.43,0,11.12.38,14.1.38,14.1a30,30,0,0,1-6.36.19s.13-4.12.13-13.33c0-3.5,0-4.45-1.9-7.63C262.8,233,258.68,226.85,255.12,220.18Z" transform="translate(-218.72 -219.22)"/><path d="M316.86,235.23c-.38,0-.57.58-.83,1.59-1.9,7.62-4,16.52-5,23.5a22.09,22.09,0,0,1-5.59-.19c-2.6-12.7-6.41-26.8-10-38.87a11.93,11.93,0,0,1,6.54-.95s1.46,7,3.88,16.83l1.46,6c.63,2.54,1.08,3.18,1.65,3.18s.83-.64,1.46-3.37l2.23-9.4c1.33-5.71,2.6-12.13,2.6-12.13a12.86,12.86,0,0,1,4.7-.51s1.65,7.05,4.07,16.2l1.65,6.35c.89,3.5,1.39,4.13,1.84,4.13.64,0,.83-.32,1.46-3.49l1.72-8.58c1.84-9.08,3-16.2,3-16.2a14.15,14.15,0,0,1,5.27.32c-3.74,14.29-6.92,27.63-9.14,39.07a25.14,25.14,0,0,1-6.23.19c-1.4-6.23-3.24-13.15-5.78-22.11C317.43,235.49,317.24,235.23,316.86,235.23Z" transform="translate(-218.72 -219.22)"/><path d="M350.08,226c11.43,0,12.76,4.45,12.76,18.42,0,13-3.43,15.88-12.19,15.88-10,0-12.26-3.81-12.26-17.46S341.25,226,350.08,226Zm-5,26.87c.63,1.27,1.9,1.72,5.4,1.72,4.13,0,5.08-.32,5.71-1.59s1-4.13,1-10.8c0-4.45-.32-7.94-1-9.21s-1.77-1.71-4.82-1.71c-4.07,0-5.66.44-6.29,1.71s-.83,5.08-.83,11.12C344.23,248.89,344.42,251.62,345.06,252.89Z" transform="translate(-218.72 -219.22)"/><path d="M386.34,241a5.49,5.49,0,0,1,4.45,5.72c0,1.9-.19,3.17-.19,5.08,0,3.81,1.46,4.57,7.18,4.57,2.86,0,6.1-.25,6.1-.25a8.71,8.71,0,0,1,0,3.81,43.63,43.63,0,0,1-9.21.7c-7.63,0-10.23-1.33-10.23-6.61,0-2.54.19-4.44.19-5.71a7.9,7.9,0,0,0-.64-3.63c-.5-.88-1.77-1.77-5.27-1.77-3.68,0-4.25.44-4.51.95-.38.76-.44,1.9-.44,4.76a87.89,87.89,0,0,0,.51,10.93,31.26,31.26,0,0,1-7.12.19s.19-4.13.19-15.56v-.64c0-14.93-.06-17.15-.57-18.1-.83-1.65-2.1-2.35-28.84-2.54-.32-.13-.32-3.12.06-3.5,15.25.19,30.5.19,39.07.19h.32c9.84,0,14.93,3.62,15,11.25C392.38,237.46,389.2,239.87,386.34,241Zm-.95-3.18c1.08-1.08,1.08-3,1.08-6.35,0-2.54-.19-4.76-1-5.84s-2-1.46-6.8-1.46c-3.49,0-4.32.19-5,.82-.89.89-1,3.94-1,9.34,0,2.22.13,3.3,1,4.13.51.51,1.46.83,3.36.83C381.39,239.24,384.25,238.92,385.39,237.77Z" transform="translate(-218.72 -219.22)"/><path d="M403.11,254.29a34.62,34.62,0,0,1-6.29,0s.32-7.94.32-14.61-.06-13-.25-19.69a30.33,30.33,0,0,1,6.54-.32s-.45,4.45-.45,13.85c0,.95.13,1.4.58,1.4s.69-.26,1.65-1.27l12.38-14a17.62,17.62,0,0,1,5.85.32L414,229.9c-2,2-2.09,2.22-2.09,3a15.34,15.34,0,0,0,1.27,3.81c2.73,6.8,6.35,14.74,10.35,22.87a51.39,51.39,0,0,1-7.88.13c-2-5.27-5.58-14.29-7.49-18.74-.76-1.78-1.08-2.54-1.59-2.54s-.63.25-1.27,1l-1.46,1.77a4.06,4.06,0,0,0-.95,3.24C402.86,247,403.11,254.29,403.11,254.29Z" transform="translate(-218.72 -219.22)"/></svg>