<svg id="Layer_1" data-name="Layer 1" xmlns="http://www.w3.org/2000/svg" viewBox="0 0 158.47 104.29"><defs><style>.cls-1{fill:none;stroke:#000;stroke-miterlimit:10;stroke-width:5px;}</style></defs><path d="M243,208.88c-.08-13.66,4.69-14.88,14.37-14.88,10.3,0,14.28.41,14.36,9.76a29.75,29.75,0,0,1-.39,4.3,20,20,0,0,1-5.7.33c0-6.67-.08-7.07-6.87-7.07-8.12,0-8.2.24-8.2,9.34,0,5.29.24,6.1,6.87,6.1,13.28,0,14.84.41,14.84,14.23,0,14.46-5.15,15-14.76,15-9.29,0-14.29-2-14.29-12.6,0-1.62.16-3.65.16-3.65a26.42,26.42,0,0,1,7.18-.17,33.66,33.66,0,0,0-.31,3.82c0,4.8,1.33,4.88,11.09,4.88,4.29,0,4.84-.81,4.84-6.5,0-8.13-.31-8.54-9-8.54C246.14,223.26,243,222.37,243,208.88Z" transform="translate(-240.76 -194)"/><path d="M319.46,245.37s-3.13,1.06-10.15,1.06c-9,0-12.18-1.79-12.18-8.94,0-3.25.46-7.72.46-12.19,0-5.69-1.87-9.35-5.15-9.35-1.4,0-2.11.57-3.9,2.6l-2,2.19c-1.57,1.79-2.19,2.93-2.19,6.59,0,13.82.47,18.29.47,18.29a20.21,20.21,0,0,1-7.81.4c.16-6.09.55-17.47.55-26s-.39-18.69-.71-25.6a47.73,47.73,0,0,1,8.44.24s-.55,5.85-.55,18.29c0,1,.23,1.22.63,1.22s.93-.33,1.95-1.46l15.53-18.29c1.18-.41,7.19,0,7.81.4l-11.87,12.6c-2,2.12-2.73,2.93-2.73,3.66,0,.57.24.81,1.8,1.63,5.46,2.84,7.18,6.5,7.18,12.19,0,2.84-.16,5.69-.16,10.16,0,5.28,1.57,6.34,7.81,6.34a48.54,48.54,0,0,0,6.95-.49C320.08,241.71,319.85,245,319.46,245.37Z" transform="translate(-240.76 -194)"/><path d="M320.16,199.77c-1.8.41-7.34.57-8.36.17a13.84,13.84,0,0,1-.39-5.21,41.66,41.66,0,0,1,8.44-.08A19,19,0,0,1,320.16,199.77Zm-.86,38.12a34.91,34.91,0,0,1-7.11-.16s.16-8,.16-14.87c0-11-.39-19.67-.39-19.67a22.3,22.3,0,0,1,7.73-.08Z" transform="translate(-240.76 -194)"/><path d="M333.74,194.41S333,212.7,333,227.73c0,6.1.24,9.76,1.41,11,1.87,1.95,5.07,2.44,12.49,2.44,10.15,0,16.47-.41,16.47-.41a20.6,20.6,0,0,1,.16,5.45s-8-.17-17.72-.17c-14.06,0-20.15.41-20.15.41s.31-8.54.31-19.1c0-26-.62-32.52-.62-32.52A40.61,40.61,0,0,1,333.74,194.41Z" transform="translate(-240.76 -194)"/><path d="M350.92,194.33s-.55,10.89-.55,26.74c0,5.28.23,7.23.86,8.53.55,1.14,1.72,1.63,5.39,1.63,4.68,0,8.74-.33,8.74-.33a22.17,22.17,0,0,1,.08,5.61c-13.9,0-22.33.82-22.33.82s.39-9.19.39-19.76c0-17.88-.47-23.24-.47-23.24C345.22,193.92,349.75,193.92,350.92,194.33Z" transform="translate(-240.76 -194)"/><path d="M367.55,208.88c-.08-13.66,4.68-14.88,14.36-14.88,10.31,0,14.29.41,14.37,9.76a29.75,29.75,0,0,1-.39,4.3,20.05,20.05,0,0,1-5.7.33c0-6.67-.08-7.07-6.87-7.07-8.12,0-8.2.24-8.2,9.34,0,5.29.23,6.1,6.87,6.1,13.27,0,14.84.41,14.84,14.23,0,14.46-5.16,15-14.76,15-9.29,0-14.29-2-14.29-12.6,0-1.62.16-3.65.16-3.65a26.42,26.42,0,0,1,7.18-.17,33.66,33.66,0,0,0-.31,3.82c0,4.8,1.32,4.88,11.08,4.88,4.3,0,4.85-.81,4.85-6.5,0-8.13-.32-8.54-9-8.54C370.67,223.26,367.55,222.37,367.55,208.88Z" transform="translate(-240.76 -194)"/><path d="M248.75,289l5.56,6.51v2.57h-12V277.73h11.58v2.57l-5.23,6.11h5.23V289Z" transform="translate(-240.76 -194)"/><path d="M274.39,298.06h-18l7.65-10.71-7-9.62h16.7l-7,9.62Z" transform="translate(-240.76 -194)"/><path d="M284,277.73a5.68,5.68,0,1,1,0,11.34h-4.48v9h-3V277.73Z" transform="translate(-240.76 -194)"/><path d="M298.83,289l5.56,6.51v2.57h-12V277.73h11.58v2.57l-5.23,6.11h5.23V289Z" transform="translate(-240.76 -194)"/><path d="M323.05,298.06H307.42V277.73h8a5.68,5.68,0,1,1,0,11.34Z" transform="translate(-240.76 -194)"/><path d="M328.44,298.06h-3V277.73h3Z" transform="translate(-240.76 -194)"/><path d="M337.93,289l5.57,6.51v2.57h-12V277.73H343v2.57l-5.23,6.11H343V289Z" transform="translate(-240.76 -194)"/><path d="M363.25,277.73v20.33H346.52V277.39l13.76,16.24v-15.9Z" transform="translate(-240.76 -194)"/><path d="M383.27,295.92a10.93,10.93,0,0,1-6.84,2.37,10.4,10.4,0,1,1,0-20.78,10.87,10.87,0,0,1,6.84,2.37l-6.84,8Z" transform="translate(-240.76 -194)"/><path d="M392.16,289l5.56,6.51v2.57h-12V277.73h11.58v2.57L392,286.41h5.23V289Z" transform="translate(-240.76 -194)"/><line class="cls-1" y1="68.51" x2="158.47" y2="68.51"/></svg>